<svg xmlns="http://www.w3.org/2000/svg" >
<symbol id="icon-facebook" viewBox="0 0 16 28">
<title>facebook</title>
<path d="M14.984 0.187v4.125h-2.453c-1.922 0-2.281 0.922-2.281 2.25v2.953h4.578l-0.609 4.625h-3.969v11.859h-4.781v-11.859h-3.984v-4.625h3.984v-3.406c0-3.953 2.422-6.109 5.953-6.109 1.687 0 3.141 0.125 3.563 0.187z"></path>
</symbol>
<symbol id="icon-youtube" viewBox="0 0 24 28">
<title>youtube</title>
<path d="M14.359 20.359v-2.453c0-0.516-0.156-0.781-0.453-0.781-0.172 0-0.344 0.078-0.516 0.25v3.5c0.172 0.172 0.344 0.25 0.516 0.25 0.297 0 0.453-0.25 0.453-0.766zM17.234 18.453h1.031v-0.531c0-0.531-0.172-0.797-0.516-0.797s-0.516 0.266-0.516 0.797v0.531zM8.313 14.297v1.094h-1.25v6.609h-1.156v-6.609h-1.219v-1.094h3.625zM11.453 16.266v5.734h-1.047v-0.625c-0.406 0.469-0.797 0.703-1.188 0.703-0.328 0-0.562-0.141-0.656-0.438-0.063-0.172-0.094-0.438-0.094-0.844v-4.531h1.031v4.219c0 0.234 0 0.375 0.016 0.406 0.016 0.156 0.094 0.234 0.234 0.234 0.219 0 0.422-0.156 0.656-0.484v-4.375h1.047zM15.391 18v2.281c0 0.516-0.031 0.906-0.109 1.141-0.125 0.438-0.406 0.656-0.828 0.656-0.359 0-0.719-0.219-1.062-0.641v0.562h-1.047v-7.703h1.047v2.516c0.328-0.406 0.688-0.625 1.062-0.625 0.422 0 0.703 0.219 0.828 0.656 0.078 0.234 0.109 0.609 0.109 1.156zM19.313 20.016v0.141c0 0.344-0.016 0.562-0.031 0.672-0.031 0.234-0.109 0.438-0.234 0.625-0.281 0.422-0.719 0.625-1.25 0.625-0.547 0-0.969-0.203-1.266-0.594-0.219-0.281-0.328-0.734-0.328-1.344v-2.016c0-0.609 0.094-1.047 0.313-1.344 0.297-0.391 0.719-0.594 1.25-0.594 0.516 0 0.938 0.203 1.219 0.594 0.219 0.297 0.328 0.734 0.328 1.344v1.188h-2.078v1.016c0 0.531 0.172 0.797 0.531 0.797 0.25 0 0.406-0.141 0.469-0.406 0-0.063 0.016-0.297 0.016-0.703h1.062zM12.266 7.141v2.438c0 0.531-0.172 0.797-0.5 0.797-0.344 0-0.5-0.266-0.5-0.797v-2.438c0-0.531 0.156-0.812 0.5-0.812 0.328 0 0.5 0.281 0.5 0.812zM20.594 18.281v0c0-1.344 0-2.766-0.297-4.062-0.219-0.922-0.969-1.594-1.859-1.687-2.125-0.234-4.281-0.234-6.438-0.234-2.141 0-4.297 0-6.422 0.234-0.906 0.094-1.656 0.766-1.859 1.687-0.297 1.297-0.313 2.719-0.313 4.062v0c0 1.328 0 2.75 0.313 4.062 0.203 0.906 0.953 1.578 1.844 1.687 2.141 0.234 4.297 0.234 6.438 0.234s4.297 0 6.438-0.234c0.891-0.109 1.641-0.781 1.844-1.687 0.313-1.313 0.313-2.734 0.313-4.062zM8.797 8.109l1.406-4.625h-1.172l-0.797 3.047-0.828-3.047h-1.219c0.234 0.719 0.5 1.437 0.734 2.156 0.375 1.094 0.609 1.906 0.719 2.469v3.141h1.156v-3.141zM13.312 9.375v-2.031c0-0.609-0.109-1.062-0.328-1.359-0.297-0.391-0.703-0.594-1.219-0.594-0.531 0-0.938 0.203-1.219 0.594-0.219 0.297-0.328 0.75-0.328 1.359v2.031c0 0.609 0.109 1.062 0.328 1.359 0.281 0.391 0.688 0.594 1.219 0.594 0.516 0 0.922-0.203 1.219-0.594 0.219-0.281 0.328-0.75 0.328-1.359zM16.141 11.25h1.047v-5.781h-1.047v4.422c-0.234 0.328-0.453 0.484-0.656 0.484-0.141 0-0.234-0.078-0.25-0.25-0.016-0.031-0.016-0.156-0.016-0.406v-4.25h-1.047v4.578c0 0.406 0.031 0.672 0.094 0.859 0.109 0.281 0.344 0.422 0.672 0.422 0.391 0 0.781-0.234 1.203-0.703v0.625zM24 6.5v15c0 2.484-2.016 4.5-4.5 4.5h-15c-2.484 0-4.5-2.016-4.5-4.5v-15c0-2.484 2.016-4.5 4.5-4.5h15c2.484 0 4.5 2.016 4.5 4.5z"></path>
</symbol>
<symbol id="icon-instagram" viewBox="0 0 24 28">
<title>instagram</title>
<path d="M16 14c0-2.203-1.797-4-4-4s-4 1.797-4 4 1.797 4 4 4 4-1.797 4-4zM18.156 14c0 3.406-2.75 6.156-6.156 6.156s-6.156-2.75-6.156-6.156 2.75-6.156 6.156-6.156 6.156 2.75 6.156 6.156zM19.844 7.594c0 0.797-0.641 1.437-1.437 1.437s-1.437-0.641-1.437-1.437 0.641-1.437 1.437-1.437 1.437 0.641 1.437 1.437zM12 4.156c-1.75 0-5.5-0.141-7.078 0.484-0.547 0.219-0.953 0.484-1.375 0.906s-0.688 0.828-0.906 1.375c-0.625 1.578-0.484 5.328-0.484 7.078s-0.141 5.5 0.484 7.078c0.219 0.547 0.484 0.953 0.906 1.375s0.828 0.688 1.375 0.906c1.578 0.625 5.328 0.484 7.078 0.484s5.5 0.141 7.078-0.484c0.547-0.219 0.953-0.484 1.375-0.906s0.688-0.828 0.906-1.375c0.625-1.578 0.484-5.328 0.484-7.078s0.141-5.5-0.484-7.078c-0.219-0.547-0.484-0.953-0.906-1.375s-0.828-0.688-1.375-0.906c-1.578-0.625-5.328-0.484-7.078-0.484zM24 14c0 1.656 0.016 3.297-0.078 4.953-0.094 1.922-0.531 3.625-1.937 5.031s-3.109 1.844-5.031 1.937c-1.656 0.094-3.297 0.078-4.953 0.078s-3.297 0.016-4.953-0.078c-1.922-0.094-3.625-0.531-5.031-1.937s-1.844-3.109-1.937-5.031c-0.094-1.656-0.078-3.297-0.078-4.953s-0.016-3.297 0.078-4.953c0.094-1.922 0.531-3.625 1.937-5.031s3.109-1.844 5.031-1.937c1.656-0.094 3.297-0.078 4.953-0.078s3.297-0.016 4.953 0.078c1.922 0.094 3.625 0.531 5.031 1.937s1.844 3.109 1.937 5.031c0.094 1.656 0.078 3.297 0.078 4.953z"></path>
</symbol>
<symbol id="icon-vk" viewBox="0 0 31 28">
<title>vk</title>
<path d="M29.953 8.125c0.234 0.641-0.5 2.141-2.344 4.594-3.031 4.031-3.359 3.656-0.859 5.984 2.406 2.234 2.906 3.313 2.984 3.453 0 0 1 1.75-1.109 1.766l-4 0.063c-0.859 0.172-2-0.609-2-0.609-1.5-1.031-2.906-3.703-4-3.359 0 0-1.125 0.359-1.094 2.766 0.016 0.516-0.234 0.797-0.234 0.797s-0.281 0.297-0.828 0.344h-1.797c-3.953 0.25-7.438-3.391-7.438-3.391s-3.813-3.938-7.156-11.797c-0.219-0.516 0.016-0.766 0.016-0.766s0.234-0.297 0.891-0.297l4.281-0.031c0.406 0.063 0.688 0.281 0.688 0.281s0.25 0.172 0.375 0.5c0.703 1.75 1.609 3.344 1.609 3.344 1.563 3.219 2.625 3.766 3.234 3.437 0 0 0.797-0.484 0.625-4.375-0.063-1.406-0.453-2.047-0.453-2.047-0.359-0.484-1.031-0.625-1.328-0.672-0.234-0.031 0.156-0.594 0.672-0.844 0.766-0.375 2.125-0.391 3.734-0.375 1.266 0.016 1.625 0.094 2.109 0.203 1.484 0.359 0.984 1.734 0.984 5.047 0 1.062-0.203 2.547 0.562 3.031 0.328 0.219 1.141 0.031 3.141-3.375 0 0 0.938-1.625 1.672-3.516 0.125-0.344 0.391-0.484 0.391-0.484s0.25-0.141 0.594-0.094l4.5-0.031c1.359-0.172 1.578 0.453 1.578 0.453z"></path>
</symbol>
<symbol id="pie-chart" viewBox="0 0 58 58">
<title>pie-chart</title>
<path style="fill:#F0785A;" d="M31,26.962h26.924C56.94,12.541,45.421,1.022,31,0.038V26.962z"/><path style="fill:#F0C419;" d="M50.386,48.615c4.343-4.71,7.151-10.858,7.614-17.653H32.733L50.386,48.615z"/><path style="fill:#556080;" d="M27,28.134V0.038C11.918,1.067,0,13.619,0,28.962C0,36.25,2.695,42.905,7.134,48L27,28.134z"/><path style="fill:#71C285;" d="M28.414,32.376L9.962,50.828c5.095,4.439,11.75,7.134,19.038,7.134 c6.99,0,13.396-2.479,18.401-6.599L28.414,32.376z"/>
</symbol>
<symbol id="credit-card" viewBox="0 0 58 58">
<title>credit-card</title>
<path id="XMLID_115_" style="fill:#F0C41B;" d="M54.783,50H3.217C1.44,50,0,48.56,0,46.783V11.217C0,9.44,1.44,8,3.217,8h51.566 C56.56,8,58,9.44,58,11.217v35.566C58,48.56,56.56,50,54.783,50"/><rect id="XMLID_114_" y="13" style="fill:#806F5E;" width="58" height="8"/><path id="XMLID_113_" style="fill:#F9EAB0;" d="M15,28H6c-0.552,0-1-0.448-1-1s0.448-1,1-1h9c0.552,0,1,0.448,1,1S15.552,28,15,28"/><path id="XMLID_112_" style="fill:#F9EAB0;" d="M28,28h-9c-0.552,0-1-0.448-1-1s0.448-1,1-1h9c0.552,0,1,0.448,1,1S28.552,28,28,28 "/><path id="XMLID_111_" style="fill:#F9EAB0;" d="M7,33H6c-0.552,0-1-0.448-1-1s0.448-1,1-1h1c0.552,0,1,0.448,1,1S7.552,33,7,33"/><path id="XMLID_110_" style="fill:#F9EAB0;" d="M13,33h-2c-0.552,0-1-0.448-1-1s0.448-1,1-1h2c0.552,0,1,0.448,1,1S13.552,33,13,33 "/><path id="XMLID_109_" style="fill:#F9EAB0;" d="M18,33h-1c-0.552,0-1-0.448-1-1s0.448-1,1-1h1c0.552,0,1,0.448,1,1S18.552,33,18,33 "/><path id="XMLID_108_" style="fill:#F9EAB0;" d="M24,33h-2c-0.552,0-1-0.448-1-1s0.448-1,1-1h2c0.552,0,1,0.448,1,1S24.552,33,24,33 "/><path id="XMLID_107_" style="fill:#F9EAB0;" d="M28,33c-0.26,0-0.52-0.11-0.71-0.29C27.11,32.52,27,32.27,27,32 c0-0.26,0.11-0.52,0.29-0.71c0.37-0.37,1.04-0.37,1.42,0C28.89,31.48,29,31.74,29,32s-0.11,0.52-0.29,0.71 C28.52,32.89,28.26,33,28,33"/><path id="XMLID_106_" style="fill:#DB2215;" d="M46,39c0,3.314-2.686,6-6,6s-6-2.686-6-6s2.686-6,6-6S46,35.686,46,39"/><path id="XMLID_105_" style="fill:#245EA9;" d="M53,39c0,3.314-2.686,6-6,6s-6-2.686-6-6s2.686-6,6-6S53,35.686,53,39"/>
</symbol>
</svg>